<svg width="93" height="120" viewBox="0 0 93 120" fill="none" xmlns="http://www.w3.org/2000/svg">
<g clip-path="url(#clip0)">
<path d="M1.68374 89.3695C1.35473 89.3695 1.08379 89.2725 0.909607 89.0979C0.754781 88.9233 0.677368 88.6517 0.677368 88.2831C0.677368 87.8758 0.851547 87.5848 1.23861 87.3714C1.31602 87.3326 1.39344 87.2744 1.47085 87.2356C1.60632 87.1386 1.70309 87.0222 1.76115 86.8476C1.81921 86.673 1.83856 86.4403 1.83856 86.1299C1.83856 84.2482 1.83856 82.3665 1.83856 80.4849C1.83856 78.6032 1.83856 76.7215 1.83856 74.8205C1.83856 74.4907 1.81921 74.2385 1.74179 74.0833C1.70309 73.8893 1.60632 73.7341 1.47085 73.5983C1.39344 73.5207 1.29667 73.4626 1.23861 73.385C0.851547 73.0552 0.677368 72.6866 0.677368 72.2792C0.677368 71.9107 0.754781 71.6585 0.909607 71.5421C1.06443 71.4257 1.31602 71.4063 1.66438 71.5227C2.76751 71.8525 3.87065 72.1822 4.99313 72.512C5.32214 72.609 5.59308 72.7642 5.74791 72.9776C5.92209 73.191 5.98015 73.4432 5.98015 73.7923C5.98015 74.1415 5.80597 74.3937 5.4189 74.5101C5.34149 74.5295 5.26408 74.5683 5.18667 74.5877C5.05119 74.6459 4.95443 74.7429 4.89637 74.8981C4.85766 75.0532 4.83831 75.2666 4.83831 75.5576C4.83831 76.4306 4.83831 77.3035 4.83831 78.1764C4.83831 78.5062 4.89637 78.7778 5.01249 78.9718C5.07055 79.0688 5.14796 79.127 5.22537 79.2046C5.30279 79.2628 5.39955 79.321 5.53502 79.3404C6.65751 79.5343 7.78 79.7283 8.90248 79.9029C9.13472 79.9417 9.3089 79.8835 9.42502 79.7477C9.54114 79.5925 9.5992 79.3791 9.5992 79.0688C9.5992 78.254 9.5992 77.4587 9.5992 76.6439C9.5992 76.353 9.57985 76.1396 9.52179 75.9844C9.46373 75.8292 9.36696 75.674 9.23149 75.5576C9.15407 75.4994 9.05731 75.4412 8.99925 75.383C8.63154 75.092 8.43801 74.7817 8.43801 74.4131C8.43801 74.0833 8.51542 73.8699 8.67024 73.7535C8.84442 73.6371 9.09601 73.6177 9.42502 73.7147C10.5282 74.0057 11.6313 74.2967 12.7538 74.5489C13.0828 74.6265 13.3537 74.7429 13.5085 74.9175C13.6827 75.092 13.7601 75.3248 13.7601 75.6352C13.7601 75.965 13.5666 76.1784 13.1795 76.2948C13.1021 76.3142 13.0247 76.353 12.9473 76.3724C12.8312 76.4305 12.7344 76.5275 12.657 76.6633C12.6183 76.7991 12.5796 77.0125 12.5796 77.2647C12.5796 78.8554 12.5796 80.4461 12.5796 82.0368C12.5796 83.6275 12.5796 85.2181 12.5796 86.8088C12.5796 87.0804 12.5989 87.2938 12.657 87.4296C12.6957 87.5654 12.8118 87.6818 12.9473 87.7788C13.0247 87.8176 13.1021 87.8758 13.1795 87.9146C13.5473 88.1085 13.7408 88.3801 13.7408 88.7099C13.7408 89.0009 13.6634 89.2143 13.4892 89.3501C13.3344 89.5052 13.0828 89.5634 12.7344 89.5634C11.6313 89.544 10.5282 89.5246 9.40567 89.5246C9.07666 89.5246 8.82507 89.447 8.65089 89.2919C8.49607 89.1367 8.41865 88.9039 8.41865 88.5741C8.41865 88.2249 8.59283 87.9534 8.9799 87.7594C9.05731 87.7206 9.13472 87.6818 9.21213 87.643C9.34761 87.5654 9.44437 87.449 9.50243 87.2938C9.56049 87.1386 9.57985 86.9252 9.57985 86.6536C9.57985 85.5091 9.57985 84.3452 9.57985 83.2007C9.57985 82.9097 9.52179 82.6575 9.40567 82.4829C9.28955 82.3083 9.11537 82.192 8.88313 82.1726C7.76064 82.0368 6.63816 81.8816 5.51567 81.7264C5.28343 81.6876 5.10925 81.7652 4.99313 81.9204C4.87702 82.0756 4.81896 82.3277 4.81896 82.6381C4.81896 83.8796 4.81896 85.1211 4.81896 86.3627C4.81896 86.6536 4.83831 86.8864 4.91572 87.061C4.97378 87.2356 5.07055 87.352 5.20602 87.449C5.28343 87.5072 5.36085 87.546 5.43826 87.6042C5.80597 87.8176 5.98015 88.1279 5.98015 88.4965C5.98015 88.8263 5.90274 89.0591 5.74791 89.2337C5.61244 89.3501 5.36085 89.4276 5.01249 89.4276C3.90935 89.4082 2.78687 89.3889 1.68374 89.3695ZM15.7148 89.5634C15.3858 89.5634 15.1342 89.4858 14.96 89.3501C14.8052 89.2143 14.7278 89.0009 14.7278 88.6905C14.7278 88.3607 14.902 88.1279 15.289 87.9534C15.3665 87.9146 15.4439 87.8758 15.5213 87.837C15.6568 87.7594 15.7342 87.6624 15.8116 87.5266C15.8503 87.3908 15.889 87.1968 15.889 86.964C15.889 85.4509 15.889 83.9378 15.889 82.4053C15.889 80.8922 15.889 79.3791 15.889 77.8467C15.889 77.5751 15.8696 77.3811 15.8116 77.2453C15.7535 77.0901 15.6568 76.9737 15.5213 76.8573C15.4439 76.7991 15.3471 76.7409 15.289 76.7021C14.902 76.4693 14.7084 76.1784 14.7084 75.8486C14.7084 75.5576 14.7859 75.3442 14.9407 75.2472C15.1149 75.1502 15.3471 75.1308 15.6955 75.2084C17.7469 75.674 19.8177 76.0426 21.8691 76.4306C22.1014 76.4693 22.353 76.4305 22.5658 76.3142C22.7787 76.1978 22.9529 76.1396 23.0497 76.159C23.1464 76.1784 23.2432 76.2366 23.3593 76.3142C23.4754 76.4112 23.5722 76.5275 23.669 76.6827C24.1528 77.5169 24.6173 78.351 25.1011 79.1658C25.1592 79.2822 25.2172 79.3985 25.2753 79.5343C25.2947 79.6313 25.314 79.7283 25.3334 79.8253C25.3334 79.9611 25.2947 80.0581 25.2172 80.1357C25.1398 80.2133 25.0431 80.2327 24.9076 80.2327C24.7334 80.2133 24.4431 80.0193 24.0367 79.6507C23.7657 79.3985 23.5529 79.2046 23.3787 79.0688C23.011 78.7584 22.6239 78.5256 22.1981 78.3316C21.7724 78.157 21.1531 77.9824 20.3015 77.8467C20.0112 77.8079 19.779 77.7885 19.5855 77.7885C19.4113 77.7885 19.2564 77.8467 19.1597 77.9048C18.9855 78.0406 18.8887 78.3316 18.8887 78.7972C18.8887 79.1464 18.8887 79.4955 18.8887 79.8447C18.8887 80.2521 18.9468 80.5431 19.0629 80.6789C19.179 80.8146 19.3919 80.9116 19.7016 80.9504C20.0112 80.9892 20.2241 80.9892 20.3789 80.931C20.5144 80.8922 20.6499 80.7565 20.766 80.5431C20.7854 80.5043 20.8047 80.4655 20.8241 80.4267C20.9789 80.1745 21.1337 80.0581 21.3079 80.0969C21.4047 80.1163 21.5014 80.1551 21.5788 80.2133C21.6756 80.2909 21.753 80.3879 21.8304 80.5043C22.3336 81.3966 22.8174 82.2889 23.3206 83.1619C23.3593 83.2395 23.398 83.2977 23.4174 83.3753C23.4367 83.4529 23.4367 83.5111 23.4561 83.5499C23.4561 83.5887 23.4561 83.6274 23.4755 83.6856C23.4755 83.8602 23.4174 83.996 23.3206 84.093C23.2239 84.19 23.0884 84.2288 22.9336 84.2094C22.7207 84.19 22.411 83.9766 21.9853 83.5887C21.8304 83.4529 21.695 83.3171 21.5595 83.1813C21.3853 83.0261 21.1918 82.9097 20.9402 82.8127C20.8241 82.7739 20.7079 82.7351 20.5531 82.6963C20.3983 82.6575 20.2241 82.6381 20.0306 82.6187C19.5467 82.5799 19.2371 82.6187 19.0823 82.7739C18.9274 82.9291 18.85 83.4141 18.85 84.2288C18.85 84.9078 18.85 85.5673 18.85 86.2463C18.85 86.77 18.9274 87.1386 19.1016 87.3326C19.2564 87.5266 19.6048 87.643 20.108 87.6624C20.8821 87.6818 21.6562 87.7206 22.4497 87.74C22.8949 87.7594 23.3013 87.7012 23.669 87.6042C24.0367 87.4878 24.4238 87.2938 24.8302 87.0416C25.0044 86.9252 25.1592 86.8088 25.3334 86.6924C25.5656 86.5372 25.7591 86.4015 25.914 86.3239C26.0881 86.2463 26.2043 86.2075 26.301 86.2075C26.4365 86.2075 26.5526 86.2657 26.63 86.3627C26.6687 86.4209 26.7074 86.4791 26.7268 86.5373C26.7461 86.5954 26.7655 86.673 26.7655 86.7506C26.7655 86.8476 26.7461 86.9252 26.7074 87.0222C26.6881 87.1192 26.6107 87.2356 26.5139 87.4102C26.0494 88.1667 25.6043 88.9427 25.1592 89.7186C25.0044 89.9902 24.8882 90.1648 24.7915 90.2424C24.6947 90.32 24.5979 90.3588 24.4625 90.3588C24.3657 90.3588 24.1722 90.2424 23.9399 89.9902C23.6883 89.738 23.4367 89.6216 23.1464 89.6216C20.6305 89.6216 18.1727 89.6022 15.7148 89.5634ZM32.1844 84.2482C32.165 84.3064 32.1263 84.3646 32.107 84.4228C32.107 84.4616 32.107 84.5004 32.107 84.5392C32.107 84.675 32.1844 84.7914 32.3392 84.869C32.5134 84.9272 32.8037 84.966 33.2101 84.9854C33.5198 85.0048 33.752 85.0048 33.9649 85.0048C34.1778 85.0048 34.352 84.9854 34.5261 84.9466C34.8551 84.8884 35.01 84.7914 35.01 84.6556C35.01 84.5974 34.9906 84.5392 34.9906 84.481C34.9906 84.4228 34.9713 84.4034 34.9713 84.384C34.9713 84.3646 34.9519 84.3258 34.9325 84.2676C34.5842 83.3171 34.2552 82.3665 33.9068 81.416C33.8681 81.319 33.8294 81.2608 33.7907 81.2026C33.7714 81.1638 33.7327 81.125 33.6939 81.125C33.6359 81.125 33.5972 81.1444 33.5391 81.1832C33.4811 81.222 33.4424 81.2996 33.4036 81.3772C32.9779 82.3083 32.5908 83.2783 32.1844 84.2482ZM27.8686 89.6798C27.6364 89.6798 27.4622 89.6216 27.3461 89.5052C27.2106 89.3889 27.1526 89.2337 27.1526 89.0009C27.1526 88.6711 27.3654 88.4189 27.7719 88.2831C27.8493 88.2637 27.9267 88.2249 28.0041 88.2055C28.1783 88.1473 28.3331 88.0115 28.4686 87.837C28.6041 87.6624 28.7976 87.2938 29.0492 86.77C29.7072 85.3539 30.3458 83.9378 31.0038 82.5411C31.6425 81.1638 32.3199 79.7865 32.9779 78.448C32.9972 78.3898 33.0166 78.351 33.0553 78.2928C33.1521 78.06 33.3843 77.963 33.7133 78.0018C34.1971 78.06 34.6616 78.0988 35.1454 78.157C35.3777 78.1764 35.5325 78.2152 35.5906 78.2734C35.6486 78.3122 35.7454 78.4868 35.8422 78.7972C36.3453 80.1939 36.8679 81.5712 37.3904 82.9485C37.8936 84.3064 38.4355 85.6837 38.958 87.0222C38.958 87.061 38.9774 87.0998 38.9967 87.1386C39.287 87.8758 39.616 88.3413 40.0031 88.5159C40.0418 88.5353 40.0805 88.5547 40.1192 88.5741C40.4869 88.7293 40.6805 88.9427 40.6805 89.2337C40.6805 89.4083 40.6224 89.544 40.5063 89.6216C40.3902 89.6992 40.1966 89.738 39.9257 89.738C38.6871 89.738 37.4485 89.738 36.2292 89.7186C35.8809 89.7186 35.6293 89.6798 35.5131 89.5828C35.3777 89.4858 35.3196 89.3307 35.3196 89.0979C35.3196 88.9815 35.339 88.8845 35.4164 88.7681C35.4744 88.6711 35.5906 88.6129 35.7067 88.5547C35.7647 88.5353 35.8228 88.5159 35.8809 88.4965C36.0937 88.4189 36.2099 88.3025 36.2099 88.1085C36.2099 87.9921 36.1712 87.8176 36.0744 87.5848C35.997 87.352 35.9002 87.158 35.7841 87.0222C35.6293 86.8282 35.4744 86.6924 35.2809 86.6148C35.1067 86.5373 34.8358 86.4791 34.5068 86.4791C33.8488 86.4597 33.2101 86.4403 32.5521 86.4209C32.2231 86.4015 31.9715 86.4403 31.7393 86.4791C31.5457 86.5179 31.3716 86.5954 31.2361 86.7118C31.0813 86.8476 30.9458 87.061 30.8103 87.352C30.6748 87.643 30.6168 87.8952 30.6168 88.0891C30.6168 88.2249 30.7329 88.3607 30.9651 88.4577C30.9651 88.4577 30.9845 88.4771 31.0038 88.4771C31.178 88.5741 31.3329 88.6517 31.4103 88.7487C31.4877 88.8457 31.5264 88.9621 31.5264 89.0979C31.5264 89.2725 31.4683 89.4277 31.3329 89.5246C31.1974 89.6216 31.0232 89.6798 30.8297 89.6798C29.8427 89.6992 28.8556 89.6798 27.8686 89.6798ZM42.2868 89.738C41.9578 89.738 41.6868 89.6798 41.5126 89.5828C41.3578 89.4664 41.2804 89.3113 41.2804 89.0785C41.2804 88.8263 41.4739 88.6323 41.861 88.4965C41.9384 88.4577 42.0158 88.4383 42.0932 88.3995C42.2094 88.3413 42.3061 88.2637 42.3835 88.1473C42.4416 88.0309 42.4609 87.8952 42.4609 87.7012C42.4609 86.5178 42.4609 85.3345 42.4609 84.1318C42.4609 82.9291 42.4609 81.7652 42.4609 80.5625C42.4609 80.3491 42.4222 80.2133 42.3642 80.1163C42.3255 79.9999 42.2287 79.9223 42.0932 79.8641C42.0158 79.8253 41.9191 79.8059 41.861 79.7671C41.4739 79.6119 41.2804 79.4179 41.2804 79.1658C41.2804 78.933 41.3578 78.7778 41.5126 78.6614C41.6868 78.5644 41.9384 78.5062 42.2868 78.5256C43.3899 78.545 44.493 78.5838 45.5962 78.6032C45.9445 78.6032 46.1961 78.6808 46.3509 78.7778C46.5251 78.8748 46.6025 79.0494 46.6025 79.2821C46.6025 79.5149 46.4284 79.7089 46.0413 79.8641C45.9639 79.9029 45.8865 79.9223 45.8091 79.9417C45.6736 79.9999 45.5768 80.0775 45.5188 80.1939C45.4607 80.3103 45.422 80.4461 45.422 80.6401C45.422 81.7846 45.422 82.9291 45.422 84.0542C45.422 85.1987 45.422 86.3433 45.422 87.4684C45.422 87.6818 45.48 87.8564 45.5962 87.9727C45.6542 88.0309 45.7316 88.0697 45.8091 88.0891C45.9058 88.1279 46.0026 88.1279 46.1187 88.1279C46.6993 88.1279 47.2799 88.1279 47.8798 88.1279C48.325 88.1279 48.7314 88.0697 49.1185 87.9727C49.4862 87.8564 49.8732 87.7012 50.2409 87.449C50.4151 87.3326 50.6087 87.1968 50.8022 87.0804C51.228 86.7894 51.5376 86.6342 51.7118 86.6342C51.8473 86.6342 51.944 86.673 52.0408 86.77C52.1376 86.867 52.1956 86.964 52.1956 87.0998C52.1956 87.1774 52.1763 87.255 52.1376 87.352C52.1182 87.4296 52.0408 87.546 51.944 87.7012C51.4795 88.3995 51.0344 89.0785 50.5893 89.7768C50.4345 89.9902 50.3184 90.1454 50.2216 90.223C50.1248 90.3006 50.0087 90.3394 49.8926 90.3394C49.7958 90.3394 49.6216 90.2424 49.37 90.029C49.1185 89.8156 48.8475 89.7186 48.5572 89.7186C46.4477 89.738 44.3576 89.738 42.2868 89.738ZM56.8017 89.7186C56.4727 89.7186 56.2017 89.6604 56.0276 89.5634C55.8727 89.447 55.7953 89.2919 55.7953 89.0591C55.7953 88.8069 55.9888 88.6129 56.3566 88.4577C56.434 88.4189 56.5114 88.3995 56.5888 88.3607C56.7049 88.3025 56.8017 88.2055 56.8791 88.1085C56.9371 87.9921 56.9565 87.837 56.9565 87.643C56.9565 86.4597 56.9565 85.2763 56.9565 84.093C56.9565 82.9097 56.9565 81.7264 56.9565 80.5431C56.9565 80.2521 56.8984 80.0775 56.8017 79.9999C56.7049 79.9223 56.4727 79.9029 56.105 79.9223C55.8534 79.9417 55.6405 79.9611 55.447 79.9999C55.2728 80.0387 55.0792 80.0969 54.9051 80.1745C54.5761 80.3103 54.1696 80.5819 53.7245 80.9698C53.5503 81.125 53.3955 81.2802 53.2213 81.4354C52.8343 81.804 52.5633 81.9786 52.4085 81.9786C52.2924 81.9786 52.1956 81.9592 52.1182 81.8816C52.0989 81.8622 52.0795 81.8234 52.0601 81.7652C52.0408 81.707 52.0214 81.6488 52.0214 81.5712C52.0214 81.3578 52.4666 80.4849 53.3568 78.933C53.3762 78.8942 53.3955 78.8554 53.4342 78.8166C53.589 78.5062 53.7632 78.2928 53.8987 78.157C54.0342 78.0212 54.1696 77.9436 54.3051 77.9436C54.4406 77.9436 54.6148 78.0212 54.8083 78.1764C55.0018 78.351 55.2341 78.4092 55.5244 78.4092C57.6145 78.2928 59.7047 78.0794 61.8142 77.8855C62.1238 77.8467 62.3948 77.7497 62.6464 77.5945C62.8786 77.4199 63.0528 77.3229 63.1302 77.3035C63.3624 77.2841 63.614 77.5363 63.885 78.0406C63.9237 78.1182 63.9624 78.1958 64.0204 78.2734C64.2333 78.6808 64.4075 79.0106 64.5236 79.2434C64.6204 79.4373 64.7365 79.6701 64.8526 79.9805C65.0268 80.3879 65.1042 80.6595 65.1042 80.8146C65.1042 80.931 65.0655 81.0474 64.9687 81.1444C64.872 81.2414 64.7752 81.2996 64.6397 81.319C64.4656 81.3384 64.2527 81.222 63.9817 80.9698C63.9043 80.8922 63.8269 80.8146 63.7495 80.7565C63.1882 80.2521 62.7044 79.9223 62.298 79.7671C61.9109 79.6119 61.4658 79.5537 61.0013 79.5925C60.5949 79.6313 60.324 79.7089 60.1691 79.8059C60.0337 79.9223 59.9756 80.1163 59.9756 80.3879C59.9756 81.61 59.9756 82.8127 59.9756 84.0348C59.9756 85.2569 59.9756 86.4597 59.9756 87.6818C59.9756 87.8758 59.995 88.0309 60.053 88.1473C60.1111 88.2637 60.2078 88.3413 60.3627 88.3995C60.4401 88.4383 60.5175 88.4577 60.5949 88.4965C60.9626 88.6323 61.1368 88.8457 61.1368 89.0979C61.1368 89.3307 61.0594 89.5052 60.9046 89.6216C60.7304 89.738 60.4981 89.7962 60.1304 89.7962C58.9886 89.7186 57.8855 89.7186 56.8017 89.7186ZM66.4396 89.6798C66.1106 89.6798 65.8396 89.6216 65.6655 89.5052C65.5106 89.3889 65.4332 89.2143 65.4332 88.9621C65.4332 88.6905 65.6267 88.4771 66.0138 88.3025C66.0912 88.2637 66.1686 88.2249 66.246 88.1861C66.3815 88.1085 66.4589 88.0309 66.517 87.8952C66.5751 87.7788 66.6138 87.6042 66.6138 87.3908C66.6138 86.0717 66.6138 84.7526 66.6138 83.4335C66.6138 82.1144 66.6138 80.7952 66.6138 79.4761C66.6138 79.2434 66.5751 79.0882 66.517 78.9912C66.4783 78.8748 66.3815 78.7972 66.246 78.739C66.1686 78.7196 66.0719 78.7002 66.0138 78.6614C65.6267 78.5644 65.4332 78.3704 65.4332 78.0988C65.4332 77.8466 65.5106 77.6527 65.6655 77.5169C65.8396 77.3811 66.0912 77.2841 66.4396 77.2453C67.5427 77.0901 68.6459 76.9349 69.749 76.7603C70.0973 76.7021 70.3489 76.7021 70.5038 76.7991C70.6779 76.8961 70.7553 77.0707 70.7553 77.3423C70.7553 77.6333 70.5812 77.8854 70.1941 78.1182C70.1167 78.157 70.0393 78.2152 69.9619 78.254C69.8264 78.351 69.7296 78.4674 69.6716 78.6032C69.6135 78.739 69.5748 78.9136 69.5748 79.1464C69.5748 79.8059 69.5748 80.4655 69.5748 81.125C69.5748 81.3772 69.6329 81.5712 69.749 81.6876C69.807 81.7458 69.8845 81.7846 69.9619 81.804C70.0586 81.8234 70.1554 81.8428 70.2715 81.8234C71.394 81.6876 72.5165 81.5712 73.639 81.4354C73.8712 81.416 74.0454 81.319 74.1615 81.1638C74.2776 81.0086 74.3357 80.7952 74.3357 80.5237C74.3357 79.8253 74.3357 79.1076 74.3357 78.4092C74.3357 78.157 74.3163 77.9824 74.2389 77.866C74.2002 77.7497 74.1035 77.6527 73.968 77.5945C73.8906 77.5751 73.7938 77.5557 73.7357 77.5169C73.368 77.4199 73.1745 77.2065 73.1745 76.8961C73.1745 76.6245 73.2519 76.4111 73.4261 76.2366C73.5809 76.0814 73.8325 75.965 74.1809 75.9068C75.284 75.6934 76.3871 75.4412 77.5096 75.189C77.8386 75.1114 78.1096 75.1308 78.2644 75.2278C78.4386 75.3248 78.4966 75.5382 78.4966 75.8292C78.4966 76.159 78.3225 76.4306 77.9354 76.7021C77.858 76.7603 77.7806 76.8185 77.7032 76.8573C77.5677 76.9543 77.4903 77.0901 77.4128 77.2453C77.3548 77.4005 77.3354 77.5945 77.3354 77.8467C77.3354 79.3597 77.3354 80.8728 77.3354 82.3859C77.3354 83.899 77.3354 85.4121 77.3354 86.9252C77.3354 87.1774 77.3548 87.3714 77.4128 87.5072C77.4709 87.6236 77.5677 87.74 77.7032 87.8176C77.7806 87.8564 77.858 87.8952 77.9354 87.934C78.3031 88.1085 78.4966 88.3413 78.4966 88.6711C78.4966 88.9427 78.4192 89.1755 78.2644 89.3113C78.1096 89.4664 77.858 89.5246 77.5096 89.544C76.4065 89.5634 75.3034 89.5634 74.1809 89.5828C73.8519 89.5828 73.5809 89.5246 73.4261 89.3889C73.2519 89.2531 73.1745 89.0591 73.1745 88.7875C73.1745 88.4965 73.368 88.2637 73.7357 88.0697C73.8131 88.0309 73.8906 87.9921 73.968 87.9534C74.1035 87.8758 74.2002 87.7788 74.2583 87.643C74.3163 87.5072 74.3357 87.3132 74.3357 87.0804C74.3357 86.0717 74.3357 85.0824 74.3357 84.0736C74.3357 83.802 74.2776 83.608 74.1615 83.4723C74.0454 83.3365 73.8712 83.2783 73.639 83.2977C72.5165 83.3947 71.394 83.4917 70.2715 83.608C70.0586 83.6274 69.8845 83.705 69.7683 83.8602C69.6522 84.0154 69.5942 84.2094 69.5942 84.4422C69.5942 85.3927 69.5942 86.3239 69.5942 87.2744C69.5942 87.4878 69.6135 87.6624 69.6716 87.7982C69.7296 87.9146 69.8457 88.0116 69.9812 88.0697C70.0586 88.1085 70.136 88.1473 70.2135 88.1667C70.5812 88.3219 70.7553 88.5353 70.7553 88.8263C70.7553 89.0785 70.6779 89.2725 70.5231 89.4083C70.3489 89.544 70.1167 89.6022 69.749 89.6022C68.6459 89.6604 67.5234 89.6604 66.4396 89.6798ZM84.2252 83.2589C83.8188 82.5993 83.4317 81.9398 83.0253 81.2802C82.5995 80.5819 82.2124 79.9417 81.8447 79.3404C81.4964 78.7778 81.1093 78.157 80.6835 77.4587C80.5481 77.2453 80.4126 77.0125 80.2771 76.7991C80.1417 76.6051 80.0062 76.4693 79.8901 76.353C79.7739 76.2754 79.6385 76.2172 79.4643 76.159C79.2708 76.1202 79.1353 76.0426 79.0579 75.965C78.9998 75.8874 78.9611 75.7516 78.9611 75.577C78.9611 75.3636 79.0192 75.1696 79.1546 75.0144C79.2901 74.8593 79.4837 74.7623 79.7352 74.7041C81.1093 74.3743 82.4834 74.0057 83.8575 73.6371C84.1091 73.5789 84.3026 73.5789 84.4187 73.6759C84.5542 73.7729 84.6123 73.9281 84.6123 74.1803C84.6123 74.4907 84.4768 74.7817 84.1865 75.0532C83.8962 75.3248 83.7607 75.5188 83.7607 75.6546C83.7607 75.8292 83.8962 76.159 84.1865 76.6633C84.5155 77.2259 85.1928 78.2734 86.1799 79.8447C86.9346 78.4092 87.5152 77.1871 87.9604 76.159C88.3668 75.2084 88.5797 74.6265 88.5797 74.4131C88.5797 74.3161 88.4635 74.1609 88.2119 73.9475C87.9604 73.7341 87.8442 73.482 87.8442 73.191C87.8442 72.9776 87.9023 72.7836 88.0378 72.6478C88.1539 72.4926 88.3474 72.3956 88.5797 72.318C89.5086 72.0271 90.4376 71.7361 91.3859 71.4451C91.6375 71.3675 91.831 71.3869 91.9665 71.4839C92.1019 71.5809 92.16 71.7555 92.16 72.0077C92.16 72.1822 92.1213 72.3568 92.0826 72.4732C92.0245 72.5896 91.9278 72.7448 91.7729 72.9C91.7149 72.9582 91.6375 73.0164 91.5988 73.0552C91.502 73.1328 91.4246 73.2104 91.3278 73.288C91.2504 73.385 91.1343 73.6177 90.9794 74.0057C90.9214 74.1221 90.8827 74.2385 90.8246 74.3549C90.7666 74.5101 90.6892 74.6653 90.6505 74.8011C90.1473 76.0232 89.6054 77.2453 89.0441 78.4674C88.5022 79.6701 87.9023 80.8728 87.3217 82.0562C87.3217 83.4917 87.3217 84.9466 87.3217 86.3821C87.3217 86.673 87.341 86.8864 87.3991 87.0416C87.4378 87.1968 87.5539 87.3132 87.6894 87.3908C87.7668 87.4296 87.8442 87.4684 87.9216 87.5266C88.2894 87.7206 88.4829 88.0115 88.4829 88.3995C88.4829 88.7293 88.4055 88.9815 88.2506 89.1561C88.0765 89.3307 87.8249 89.4276 87.4765 89.4276C86.3347 89.447 85.2122 89.4664 84.0897 89.4858C83.7607 89.4858 83.4898 89.4083 83.3349 89.2725C83.1608 89.1173 83.1027 88.9039 83.1027 88.5741C83.1027 88.2443 83.2769 87.9534 83.6639 87.74C83.7413 87.7012 83.8188 87.643 83.8962 87.6042C84.0316 87.5072 84.1091 87.3908 84.1865 87.2356C84.2445 87.0804 84.2639 86.867 84.2639 86.5954C84.2252 85.4897 84.2252 84.3646 84.2252 83.2589Z" fill="white"/>
<path d="M2.14821 98.545C2.14821 98.3898 2.07079 98.2346 1.91597 98.0989C1.76114 97.9631 1.50955 97.8273 1.18055 97.6915C0.851541 97.5557 0.599949 97.3811 0.445124 97.1871C0.406417 97.1289 0.367711 97.0513 0.348358 96.9737C0.290298 96.7991 0.251592 96.6246 0.251592 96.4306C0.251592 95.9068 0.406417 95.5188 0.696716 95.286C0.987014 95.0533 1.45149 94.9175 2.07079 94.9175C3.6384 94.8981 5.20601 94.8787 6.79298 94.8593C6.96716 94.8593 7.12198 94.8593 7.19939 94.8787C7.27681 94.8787 7.39293 94.9175 7.54775 94.9757C7.76064 95.0339 7.93482 95.1697 8.109 95.3442C9.67661 97.1289 11.2249 98.8942 12.7925 100.582C14.3407 102.27 15.9277 103.88 17.4953 105.49C17.4953 104.365 17.4953 103.259 17.4953 102.134C17.4953 101.009 17.4953 99.9029 17.4953 98.7778C17.4953 98.3704 17.4372 98.0795 17.3211 97.8855C17.2244 97.6721 17.0695 97.5169 16.8179 97.4005C16.6631 97.3423 16.5276 97.2841 16.3922 97.2259C15.6955 96.9737 15.3471 96.5858 15.3471 96.0814C15.3471 95.6158 15.5019 95.286 15.7922 95.0727C16.0825 94.8593 16.547 94.7623 17.1856 94.7429C18.4436 94.7429 19.6822 94.7235 20.9402 94.7235C21.5595 94.7235 22.024 94.8205 22.3143 95.0145C22.6239 95.2085 22.7594 95.5382 22.7594 95.9844C22.7594 96.45 22.411 96.8379 21.7143 97.1289C21.5595 97.1871 21.424 97.2453 21.2885 97.3229C21.0563 97.4393 20.8821 97.6139 20.766 97.8273C20.6692 98.0407 20.6112 98.351 20.6112 98.7196C20.6112 101.61 20.6112 104.481 20.6112 107.371C20.6112 110.262 20.6112 113.133 20.6112 116.023C20.6112 116.159 20.5918 116.275 20.5144 116.372C20.4563 116.45 20.3402 116.489 20.2048 116.508C19.3726 116.625 18.5404 116.741 17.7275 116.838C17.5727 116.857 17.4759 116.838 17.4179 116.78C17.3598 116.741 17.3211 116.625 17.3211 116.45C17.3211 115.752 17.3211 115.073 17.3211 114.374C17.3211 113.618 16.8954 112.803 16.0245 111.969C15.9664 111.911 15.889 111.852 15.8309 111.775C14.1278 110.087 12.4248 108.361 10.7217 106.576C9.03795 104.753 7.35422 102.89 5.65114 100.989C5.65114 103.239 5.65114 105.509 5.65114 107.759C5.65114 110.01 5.65114 112.279 5.65114 114.53C5.65114 114.976 5.68984 115.305 5.80596 115.519C5.90273 115.732 6.07691 115.887 6.3285 115.965C6.46397 116.004 6.6188 116.043 6.75427 116.081C7.45099 116.256 7.77999 116.605 7.77999 117.129C7.77999 117.614 7.64452 118.002 7.35422 118.293C7.06392 118.584 6.59944 118.778 5.96079 118.933C4.58671 119.224 3.19328 119.573 1.83855 119.903C1.21925 120.058 0.754775 120.039 0.445124 119.864C0.135472 119.69 0 119.321 0 118.778C0 118.215 0.329005 117.711 1.00637 117.245C1.14184 117.148 1.27731 117.051 1.41278 116.954C1.66438 116.76 1.83855 116.528 1.95467 116.275C2.07079 116.004 2.12885 115.655 2.12885 115.208C2.12885 112.434 2.12885 109.66 2.12885 106.886C2.14821 104.093 2.14821 101.319 2.14821 98.545ZM32.2812 94.6847C32.7456 94.6847 33.0746 94.7817 33.3262 94.9563C33.5585 95.1309 33.6939 95.383 33.6939 95.7516C33.6939 96.256 33.3069 96.6052 32.5327 96.8379C32.3779 96.8767 32.2812 96.9155 32.1844 96.9543C32.107 96.9931 32.0296 97.0319 31.9909 97.0513C31.778 97.2065 31.5844 97.5557 31.4296 98.1183C31.2748 98.6808 31.2167 99.4374 31.2167 100.349C31.1974 100.64 31.178 100.95 31.1587 101.241C31.1006 102.231 31.0232 103.22 30.9651 104.209C30.9071 105.199 30.8297 106.188 30.7716 107.177C30.7716 107.236 30.7716 107.294 30.7716 107.352C30.7716 107.41 30.7716 107.507 30.7523 107.643C30.7523 107.876 30.7523 108.109 30.7523 108.322C30.7523 109.971 31.1006 111.135 31.778 111.814C32.4747 112.493 33.5972 112.803 35.1454 112.745C36.7905 112.687 38.0097 112.279 38.8225 111.562C39.6354 110.844 40.0611 109.777 40.0611 108.361C40.0611 108.05 40.0611 107.74 40.0611 107.43C40.0418 107.158 40.0224 106.886 40.0031 106.615C39.945 105.626 39.8676 104.656 39.8096 103.666C39.7515 102.696 39.6741 101.707 39.616 100.718C39.616 100.698 39.5967 100.659 39.5967 100.64C39.5967 99.5926 39.5193 98.7584 39.3838 98.1377C39.2483 97.5169 39.0548 97.1289 38.8419 96.9931C38.629 96.8767 38.3968 96.7604 38.1839 96.6246C37.5839 96.353 37.2743 96.0038 37.2743 95.5964C37.2743 95.3054 37.371 95.0533 37.5646 94.8981C37.7581 94.7429 38.0291 94.6459 38.4161 94.6459C40.0611 94.6459 41.6868 94.6459 43.3318 94.6459C43.7383 94.6459 44.0673 94.7429 44.2801 94.8981C44.5124 95.0727 44.6285 95.3248 44.6285 95.6352C44.6285 96.0232 44.3189 96.353 43.7189 96.6052C43.5834 96.6634 43.4673 96.7215 43.3318 96.7797C43.0222 96.9155 42.8093 97.0707 42.6932 97.2647C42.5577 97.4393 42.4996 97.6915 42.4996 98.0019C42.4996 98.0795 42.4996 98.1764 42.4996 98.2734C42.4996 98.3316 42.519 98.4092 42.5384 98.4674C42.6158 99.515 42.7125 100.562 42.7899 101.61C42.8674 102.658 42.9641 103.705 43.0609 104.753C43.0802 105.005 43.0996 105.238 43.119 105.49C43.119 106.149 43.1383 106.809 43.177 107.449C43.2157 108.089 43.2738 108.71 43.3318 109.35C43.3318 111.329 42.5964 112.842 41.1643 113.851C40.4482 114.355 39.558 114.723 38.4742 115.014C37.4098 115.305 36.1324 115.48 34.7003 115.558C31.4296 115.732 28.9911 115.383 27.4235 114.394C25.8559 113.424 25.0624 111.794 25.0624 109.447C25.0624 109.156 25.0818 108.807 25.1011 108.38C25.1205 107.953 25.1785 107.333 25.2753 106.518C25.314 106.014 25.3721 105.509 25.4301 105.005C25.6236 103.104 25.8172 101.183 26.0301 99.2822C26.0301 99.1076 26.0494 98.933 26.0688 98.7584C26.0688 98.5644 26.0688 98.3898 26.0688 98.1958C26.0688 97.8273 26.0107 97.5557 25.8946 97.3811C25.7978 97.2065 25.5849 97.0513 25.2559 96.8961C25.1592 96.8573 25.0624 96.8185 24.9656 96.7797C24.3463 96.5276 24.0367 96.1784 24.0367 95.7516C24.0367 95.4412 24.1528 95.1891 24.3657 94.9951C24.5786 94.8011 24.8689 94.7041 25.2366 94.6847C27.559 94.6847 29.9201 94.6847 32.2812 94.6847ZM53.7052 115.208C53.0859 115.189 52.6214 115.053 52.3117 114.84C52.0214 114.627 51.8666 114.316 51.8666 113.909C51.8666 113.463 52.215 113.133 52.8923 112.881C53.0278 112.842 53.1826 112.784 53.3181 112.725C53.5503 112.628 53.7245 112.473 53.8406 112.299C53.9374 112.085 53.9955 111.814 53.9955 111.465C53.9955 109.331 53.9955 107.216 53.9955 105.082C53.9955 102.949 53.9955 100.834 53.9955 98.7002C53.9955 98.1958 53.918 97.8467 53.7245 97.6915C53.531 97.5557 53.1052 97.4781 52.4472 97.4587C51.9827 97.4587 51.5957 97.4781 51.2473 97.5169C50.9183 97.5557 50.5699 97.6333 50.2603 97.7497C49.641 97.9631 48.9249 98.4092 48.1121 99.0688C47.8024 99.3404 47.4928 99.612 47.1831 99.8835C46.4864 100.504 46.0026 100.815 45.6929 100.815C45.4994 100.815 45.3059 100.737 45.151 100.601C45.1123 100.562 45.0736 100.504 45.0349 100.407C44.9769 100.31 44.9575 100.194 44.9575 100.058C44.9575 99.6507 45.7703 98.0989 47.396 95.383C47.4347 95.3248 47.4734 95.2473 47.5315 95.1697C47.8411 94.6459 48.1121 94.2579 48.3637 94.0251C48.6153 93.7924 48.8669 93.676 49.0991 93.676C49.3507 93.676 49.6603 93.8311 50.028 94.1415C50.3764 94.4713 50.8215 94.6265 51.3441 94.6265C55.176 94.6459 58.9886 94.6459 62.8205 94.6653C63.3818 94.6653 63.8849 94.5489 64.3301 94.2967C64.7752 94.0445 65.0655 93.9087 65.201 93.8894C65.6267 93.8894 66.0912 94.3743 66.5944 95.3636C66.6718 95.5188 66.7492 95.6546 66.8266 95.8098C67.2137 96.5858 67.5233 97.2065 67.7556 97.6527C67.9298 98.0213 68.1427 98.4868 68.3749 99.03C68.6845 99.7865 68.8394 100.31 68.8394 100.562C68.8394 100.776 68.762 100.95 68.6071 101.106C68.4523 101.261 68.2394 101.319 68.0072 101.319C67.6975 101.3 67.3105 101.047 66.8073 100.524C66.6525 100.368 66.517 100.233 66.3815 100.078C65.3364 99.0688 64.4655 98.3898 63.7301 98.0213C62.9947 97.6721 62.2012 97.4975 61.3497 97.4781C60.6143 97.4587 60.0917 97.5557 59.8401 97.7109C59.5885 97.8855 59.4724 98.2346 59.4724 98.7196C59.4724 100.892 59.4724 103.046 59.4724 105.218C59.4724 107.391 59.4724 109.544 59.4724 111.697C59.4724 112.066 59.5305 112.337 59.6466 112.551C59.7434 112.764 59.9369 112.939 60.1885 113.055C60.324 113.113 60.4594 113.191 60.5949 113.249C61.2723 113.56 61.6013 113.948 61.6013 114.413C61.6013 114.82 61.4464 115.111 61.1755 115.305C60.8852 115.499 60.4207 115.558 59.7821 115.519C57.7306 115.441 55.7179 115.305 53.7052 115.208ZM70.1167 112.551C70.0586 112.434 69.9619 112.26 69.8844 112.066C69.7877 111.872 69.7103 111.717 69.6909 111.62C69.5748 111.329 69.5167 111.077 69.5167 110.883C69.5167 110.611 69.5941 110.417 69.749 110.262C69.9038 110.107 70.0973 110.048 70.3102 110.068C70.6586 110.107 71.2005 110.436 71.9746 111.077C72.3423 111.368 72.71 111.659 73.0777 111.949C74.297 112.861 75.5356 113.598 76.8322 114.142C78.1289 114.685 79.5804 115.073 81.2061 115.325C82.735 115.558 83.9542 115.461 84.8638 115.034C85.7734 114.588 86.2186 113.87 86.2186 112.919C86.2186 112.046 85.8121 111.232 84.9993 110.495C84.1865 109.757 82.5027 108.768 79.9288 107.565C79.3288 107.313 78.7289 107.042 78.1483 106.789C75.7678 105.781 74.2583 105.044 73.6003 104.539C72.7294 103.88 72.0714 103.181 71.6262 102.425C71.1811 101.668 70.9682 100.853 70.9682 99.9611C70.9682 98.351 71.6262 97.0125 72.9616 95.9844C74.2776 94.9369 76.0001 94.4131 78.0902 94.4325C78.516 94.4325 78.9224 94.4519 79.3095 94.4907C79.6965 94.5295 80.1223 94.5877 80.5674 94.6847C80.9932 94.7623 81.4383 94.8205 81.8834 94.8981C82.0963 94.8981 82.2705 94.8593 82.4253 94.7623C82.5608 94.6653 82.6963 94.4907 82.793 94.2579C82.8898 94.0251 83.0059 93.8506 83.1414 93.7342C83.2769 93.6372 83.4317 93.5596 83.6059 93.5596C83.8381 93.5596 84.109 93.6566 84.3606 93.8506C84.6316 94.0445 84.9606 94.4131 85.3283 94.9175C86.1411 95.9844 86.954 97.0513 87.7668 98.157C87.9603 98.4092 88.1152 98.642 88.2313 98.8554C88.3668 99.0494 88.4635 99.224 88.5216 99.3404C88.6571 99.6507 88.7151 99.9029 88.7151 100.116C88.7151 100.368 88.6377 100.601 88.4442 100.795C88.27 100.97 88.0571 101.047 87.8249 101.028C87.4765 101.009 86.8959 100.659 86.0831 99.9999C85.7347 99.7477 85.3864 99.4762 85.0574 99.224C84.2058 98.6226 83.4123 98.1958 82.6382 97.9049C81.8641 97.6139 81.1287 97.4587 80.4126 97.4393C79.4062 97.4199 78.6127 97.5557 78.0515 97.8661C77.4903 98.1765 77.2 98.6032 77.2 99.1464C77.2 100.019 78.6514 100.931 81.5351 101.92C81.9028 102.037 82.2898 102.173 82.6769 102.328C83.0833 102.464 83.5478 102.638 84.051 102.852C86.8572 103.977 88.8699 105.335 90.1085 106.848C91.3472 108.4 91.9665 110.339 91.9665 112.648C91.9665 115.092 91.1343 116.916 89.4699 118.041C87.8249 119.166 85.5412 119.399 82.6963 118.875C81.2254 118.603 79.7352 118.215 78.2257 117.711C77.4128 117.459 76.6194 117.187 75.8259 116.935C75.6517 116.916 75.4195 117.129 75.0711 117.614C74.7421 118.079 74.3744 118.273 73.9873 118.215C73.7551 118.176 73.5422 118.06 73.31 117.847C73.0971 117.633 72.7874 117.207 72.4197 116.566C71.6456 115.208 70.8908 113.87 70.1167 112.551Z" fill="white"/>
<path fill-rule="evenodd" clip-rule="evenodd" d="M63.7881 28.9623C61.1367 28.9623 58.9885 31.8527 58.9885 35.422C58.9885 38.9914 61.1367 41.8818 63.7881 41.8818C66.4395 41.8818 68.5877 38.9914 68.5877 35.422C68.5877 31.8527 66.4395 28.9623 63.7881 28.9623Z" fill="white"/>
<path fill-rule="evenodd" clip-rule="evenodd" d="M35.8228 29.4858C30.3845 29.4858 25.8365 33.1522 24.7721 38.0212C26.8429 35.6934 29.9394 34.2191 33.4036 34.2191C35.997 34.2191 38.3968 35.0533 40.3127 36.45C43.7189 38.9524 47.2412 36.5857 44.6672 33.5402C42.5964 31.0765 39.4031 29.4858 35.8228 29.4858Z" fill="white"/>
<path fill-rule="evenodd" clip-rule="evenodd" d="M67.9684 58.2735C56.6855 68.1862 40.8739 65.1988 30.5586 52.9388C30.5199 52.8807 30.4812 52.8419 30.4232 52.7837C30.7909 52.6867 31.1586 52.6091 31.5457 52.5703C34.2551 52.3181 34.9905 49.1367 32.4553 48.6517C30.4038 48.2444 28.1782 48.9427 26.4364 50.7468C24.8301 52.4151 23.9398 54.7041 23.8431 56.9932C23.7657 58.6032 24.0947 61.4355 25.1397 58.2735C25.4494 57.3229 25.9139 56.4112 26.5138 55.5965C26.6106 55.8098 26.7267 56.0232 26.8815 56.256C35.8614 70.4752 58.2531 75.7129 68.5877 59.9418C69.9231 57.8855 71.1617 55.4801 67.9684 58.2735Z" fill="white"/>
<path fill-rule="evenodd" clip-rule="evenodd" d="M45.7124 0C69.8071 0 89.3345 19.5732 89.3345 43.7245C89.3345 53.8118 85.9283 63.1038 80.1804 70.5141C79.7353 70.6305 79.2902 70.7468 78.845 70.8438C78.4967 70.9214 78.1483 71.0378 77.8193 71.193C77.4129 71.193 77.0258 71.2512 76.6388 71.3482L76.0969 71.4646C81.5738 64.7139 84.8639 56.1009 84.8639 46.7313C84.8639 25.063 67.3492 7.50727 45.7317 7.50727C24.0948 7.50727 6.58016 25.063 6.58016 46.7313C6.58016 55.9845 9.77344 64.4811 15.1149 71.193H15.0569C14.6117 70.9602 14.1473 70.805 13.6634 70.6887C12.7151 70.4559 11.7668 70.2231 10.8185 69.9709C5.34155 62.6576 2.09021 53.5791 2.09021 43.7439C2.09021 19.5732 21.6176 0 45.7124 0Z" fill="white"/>
</g>
<defs>
<clipPath id="clip0">
<rect width="92.16" height="120" fill="white"/>
</clipPath>
</defs>
</svg>
